HIERARCHY
ROOT Hips
{
  OFFSET 21.870 24.992 -272.610
  CHANNELS 6 Xposition Yposition Zposition Zrotation Xrotation Yrotation
  JOINT LeftUpLeg
  {
    OFFSET 7.923 -7.628 1.759
    CHANNELS 6 Xposition Yposition Zposition Zrotation Xrotation Yrotation
    JOINT LeftLeg
    {
      OFFSET 0.000 -47.660 0.000
      CHANNELS 6 Xposition Yposition Zposition Zrotation Xrotation Yrotation
      JOINT LeftFoot
      {
        OFFSET -0.000 -40.837 -0.000
        CHANNELS 6 Xposition Yposition Zposition Zrotation Xrotation Yrotation
        End Site
        {
          OFFSET 0.000 -8.728 5.039
        }
      }
    }
  }
  JOINT RightUpLeg
  {
    OFFSET -7.621 -7.312 1.978
    CHANNELS 6 Xposition Yposition Zposition Zrotation Xrotation Yrotation
    JOINT RightLeg
    {
      OFFSET -0.000 -45.830 0.000
      CHANNELS 6 Xposition Yposition Zposition Zrotation Xrotation Yrotation
      JOINT RightFoot
      {
        OFFSET -0.000 -43.180 -0.000
        CHANNELS 6 Xposition Yposition Zposition Zrotation Xrotation Yrotation
        End Site
        {
          OFFSET 0.000 -8.632 4.984
        }
      }
    }
  }
  JOINT Spine
  {
    OFFSET 0.000 5.884 -5.884
    CHANNELS 6 Xposition Yposition Zposition Zrotation Xrotation Yrotation
    JOINT LeftShoulder
    {
      OFFSET -0.000 34.615 0.000
      CHANNELS 6 Xposition Yposition Zposition Zrotation Xrotation Yrotation
      JOINT LeftArm
      {
        OFFSET 20.460 0.000 -0.000
        CHANNELS 6 Xposition Yposition Zposition Zrotation Xrotation Yrotation
        JOINT LeftForeArm
        {
          OFFSET 25.646 0.000 0.000
          CHANNELS 6 Xposition Yposition Zposition Zrotation Xrotation Yrotation
          JOINT LeftHand
          {
            OFFSET 27.336 0.000 -0.000
            CHANNELS 6 Xposition Yposition Zposition Zrotation Xrotation Yrotation
            JOINT LeftHandThumb1
            {
            OFFSET 4.970 -0.620 3.390
            CHANNELS 6 Xposition Yposition Zposition Zrotation Xrotation Yrotation
              JOINT LeftHandThumb2
              {
              OFFSET 2.150 -0.000 0.000
              CHANNELS 6 Xposition Yposition Zposition Zrotation Xrotation Yrotation
                JOINT LeftHandThumb3
                {
                OFFSET 2.200 -0.000 0.000
                CHANNELS 6 Xposition Yposition Zposition Zrotation Xrotation Yrotation
                  JOINT LeftHandThumb4
                  {
                  OFFSET 1.700 -0.000 0.000
                  CHANNELS 6 Xposition Yposition Zposition Zrotation Xrotation Yrotation
                  }
                }
              }
            }
            JOINT LeftHandIndex1
            {
            OFFSET 8.730 0.680 2.070
            CHANNELS 6 Xposition Yposition Zposition Zrotation Xrotation Yrotation
              JOINT LeftHandIndex2
              {
              OFFSET 2.670 -0.000 0.000
              CHANNELS 6 Xposition Yposition Zposition Zrotation Xrotation Yrotation
                JOINT LeftHandIndex3
                {
                OFFSET 2.130 -0.000 0.000
                CHANNELS 6 Xposition Yposition Zposition Zrotation Xrotation Yrotation
                  JOINT LeftHandIndex4
                  {
                  OFFSET 1.800 -0.000 0.000
                  CHANNELS 6 Xposition Yposition Zposition Zrotation Xrotation Yrotation
                  }
                }
              }
            }
            JOINT LeftHandMiddle1
            {
            OFFSET 9.220 0.670 0.550
            CHANNELS 6 Xposition Yposition Zposition Zrotation Xrotation Yrotation
              JOINT LeftHandMiddle2
              {
              OFFSET 2.660 -0.000 0.000
              CHANNELS 6 Xposition Yposition Zposition Zrotation Xrotation Yrotation
                JOINT LeftHandMiddle3
                {
                OFFSET 2.280 -0.000 0.000
                CHANNELS 6 Xposition Yposition Zposition Zrotation Xrotation Yrotation
                  JOINT LeftHandMiddle4
                  {
                  OFFSET 1.500 -0.000 0.000
                  CHANNELS 6 Xposition Yposition Zposition Zrotation Xrotation Yrotation
                  }
                }
              }
            }
            JOINT LeftHandRing1
            {
            OFFSET 9.250 0.670 -1.130
            CHANNELS 6 Xposition Yposition Zposition Zrotation Xrotation Yrotation
              JOINT LeftHandRing2
              {
              OFFSET 2.470 -0.000 0.000
              CHANNELS 6 Xposition Yposition Zposition Zrotation Xrotation Yrotation
                JOINT LeftHandRing3
                {
                OFFSET 2.210 -0.000 0.000
                CHANNELS 6 Xposition Yposition Zposition Zrotation Xrotation Yrotation
                  JOINT LeftHandRing4
                  {
                  OFFSET 1.800 -0.000 0.000
                  CHANNELS 6 Xposition Yposition Zposition Zrotation Xrotation Yrotation
                  }
                }
              }
            }
            JOINT LeftHandPinky1
            {
            OFFSET 9.350 0.660 -2.720
            CHANNELS 6 Xposition Yposition Zposition Zrotation Xrotation Yrotation
              JOINT LeftHandPinky2
              {
              OFFSET 1.630 -0.000 0.000
              CHANNELS 6 Xposition Yposition Zposition Zrotation Xrotation Yrotation
                JOINT LeftHandPinky3
                {
                OFFSET 1.710 -0.000 0.000
                CHANNELS 6 Xposition Yposition Zposition Zrotation Xrotation Yrotation
                  JOINT LeftHandPinky4
                  {
                  OFFSET 1.800 -0.000 0.000
                  CHANNELS 6 Xposition Yposition Zposition Zrotation Xrotation Yrotation
                  }
                }
              }
            }
          }
        }
      }
    }
    JOINT RightShoulder
    {
      OFFSET -0.000 34.615 0.000
      CHANNELS 6 Xposition Yposition Zposition Zrotation Xrotation Yrotation
      JOINT RightArm
      {
        OFFSET -20.118 0.000 -0.000
        CHANNELS 6 Xposition Yposition Zposition Zrotation Xrotation Yrotation
        JOINT RightForeArm
        {
          OFFSET -26.584 0.000 0.000
          CHANNELS 6 Xposition Yposition Zposition Zrotation Xrotation Yrotation
          JOINT RightHand
          {
            OFFSET -26.215 0.000 -0.000
            CHANNELS 6 Xposition Yposition Zposition Zrotation Xrotation Yrotation
            JOINT RightHandThumb1
            {
            OFFSET -4.970 -0.620 3.390
            CHANNELS 6 Xposition Yposition Zposition Zrotation Xrotation Yrotation
              JOINT RightHandThumb2
              {
              OFFSET -2.150 0.000 0.000
              CHANNELS 6 Xposition Yposition Zposition Zrotation Xrotation Yrotation
                JOINT RightHandThumb3
                {
                OFFSET -2.200 0.000 0.000
                CHANNELS 6 Xposition Yposition Zposition Zrotation Xrotation Yrotation
                  JOINT RightHandThumb4
                  {
                  OFFSET -1.700 0.000 0.000
                  CHANNELS 6 Xposition Yposition Zposition Zrotation Xrotation Yrotation
                  }
                }
              }
            }
            JOINT RightHandIndex1
            {
            OFFSET -8.730 0.680 2.070
            CHANNELS 6 Xposition Yposition Zposition Zrotation Xrotation Yrotation
              JOINT RightHandIndex2
              {
              OFFSET -2.670 0.000 0.000
              CHANNELS 6 Xposition Yposition Zposition Zrotation Xrotation Yrotation
                JOINT RightHandIndex3
                {
                OFFSET -2.130 0.000 0.000
                CHANNELS 6 Xposition Yposition Zposition Zrotation Xrotation Yrotation
                  JOINT RightHandIndex4
                  {
                  OFFSET -1.800 0.000 0.000
                  CHANNELS 6 Xposition Yposition Zposition Zrotation Xrotation Yrotation
                  }
                }
              }
            }
            JOINT RightHandMiddle1
            {
            OFFSET -9.220 0.670 0.550
            CHANNELS 6 Xposition Yposition Zposition Zrotation Xrotation Yrotation
              JOINT RightHandMiddle2
              {
              OFFSET -2.660 0.000 0.000
              CHANNELS 6 Xposition Yposition Zposition Zrotation Xrotation Yrotation
                JOINT RightHandMiddle3
                {
                OFFSET -2.280 0.000 0.000
                CHANNELS 6 Xposition Yposition Zposition Zrotation Xrotation Yrotation
                  JOINT RightHandMiddle4
                  {
                  OFFSET -1.500 0.000 0.000
                  CHANNELS 6 Xposition Yposition Zposition Zrotation Xrotation Yrotation
                  }
                }
              }
            }
            JOINT RightHandRing1
            {
            OFFSET -9.250 0.670 -1.130
            CHANNELS 6 Xposition Yposition Zposition Zrotation Xrotation Yrotation
              JOINT RightHandRing2
              {
              OFFSET -2.470 0.000 0.000
              CHANNELS 6 Xposition Yposition Zposition Zrotation Xrotation Yrotation
                JOINT RightHandRing3
                {
                OFFSET -2.210 0.000 0.000
                CHANNELS 6 Xposition Yposition Zposition Zrotation Xrotation Yrotation
                  JOINT RightHandRing4
                  {
                  OFFSET -1.800 0.000 0.000
                  CHANNELS 6 Xposition Yposition Zposition Zrotation Xrotation Yrotation
                  }
                }
              }
            }
            JOINT RightHandPinky1
            {
            OFFSET -9.350 0.660 -2.720
            CHANNELS 6 Xposition Yposition Zposition Zrotation Xrotation Yrotation
              JOINT RightHandPinky2
              {
              OFFSET -1.630 0.000 0.000
              CHANNELS 6 Xposition Yposition Zposition Zrotation Xrotation Yrotation
                JOINT RightHandPinky3
                {
                OFFSET -1.710 0.000 0.000
                CHANNELS 6 Xposition Yposition Zposition Zrotation Xrotation Yrotation
                  JOINT RightHandPinky4
                  {
                  OFFSET -1.800 0.000 0.000
                  CHANNELS 6 Xposition Yposition Zposition Zrotation Xrotation Yrotation
                  }
                }
              }
            }
          }
        }
      }
    }
    JOINT Neck
    {
      OFFSET -0.000 34.615 0.000
      CHANNELS 6 Xposition Yposition Zposition Zrotation Xrotation Yrotation
      JOINT Head
      {
        OFFSET -0.000 20.437 -0.000
        CHANNELS 6 Xposition Yposition Zposition Zrotation Xrotation Yrotation
        End Site
        {
          OFFSET -0.000 0.082 -0.000
        }
      }
    }
  }
}
MOTION
Frames:	6
Frame Time:	0.0333333
28.4639 24.2506 -277.374 -2.47126 4.73123 -24.741 7.6858 -7.38519 1.67146 6.41139 -16.4421 2.91031 5.96046e-06 -50.566 -4.76837e-05 -5.67515 19.5376 -3.62374e-06 -5.96046e-06 -40.224 -2.38419e-05 2.37131 -22.3954 2.06092 -7.31459 -7.19319 1.9901 -1.81813 -20.8557 -4.322 1.19209e-05 -46.8732 0 8.44022 36.1106 -6.34084e-06 -2.38419e-05 -42.9437 2.38419e-05 -19.7843 -45.6059 -20.8848 1.78814e-05 6.02137 -6.02136 1.37635 -4.67637 0.369587 0 34.6158 4.76837e-05 -32.8534 1.10991e-05 -0.219195 19.7559 1.71363e-05 -9.53674e-05 -28.8531 20.3172 6.55933 27.8704 3.57628e-05 2.38419e-05 3.77516e-07 -1.36604e-05 -28.4044 28.7612 -1.19209e-05 -7.15256e-05 -7.20634 0.0426667 -4.73446 0.0062 0.0497 0.0339 0 0 0 0 0.0215 0 0 0 0 0 0.022 0 0 0 0 0 0.017 0 0 0 0 -0.0068 0.0873 0.0207 0 0 0 0 0.0267 0 0 0 0 0 0.0213 0 0 0 0 0 0.018 0 0 0 0 -0.0067 0.0922 0.0055 0 0 0 0 0.0266 0 0 0 0 0 0.0228 0 0 0 0 0 0.015 0 0 0 0 -0.0067 0.0925 -0.0113 0 0 0 0 0.0247 0 0 0 0 0 0.0221 0 0 0 0 0 0.018 0 0 0 0 -0.0066 0.0935 -0.0272 0 0 0 0 0.0163 0 0 0 0 0 0.0171 0 0 0 0 0 0.018 0 0 0 0 0 34.6158 4.76837e-05 30.4192 -1.70755e-06 0.217359 -19.9229 3.57628e-05 -2.38419e-05 45.0422 11.9904 -5.21031 -26.3637 -2.98023e-05 -4.76837e-05 -6.90942e-06 5.97641e-06 54.5038 -26.2018 0 3.57628e-05 3.45451 0.0642659 6.746 -0.0062 0.0497 0.0339 45 0 0 0 0.0215 0 0 -45 0 0 0.022 0 0 -45 0 0 0.017 0 0 0 0 0.0068 0.0873 0.0207 45 0 0 0 0.0267 0 80 0 0 0 0.0213 0 90 0 0 0 0.018 0 0 0 0 0.0067 0.0922 0.0055 45 0 0 0 0.0266 0 80 0 0 0 0.0228 0 90 0 0 0 0.015 0 0 0 0 0.0067 0.0925 -0.0113 45 0 0 0 0.0247 0 80 0 0 0 0.0221 0 90 0 0 0 0.018 0 0 0 0 0.0066 0.0935 -0.0272 45 0 0 0 0.0163 0 80 0 0 0 0.0171 0 90 0 0 0 0.018 0 0 0 0 0 34.6158 4.76837e-05 1.15234 5.19692 -0.104386 -2.38419e-05 21.098 -7.15256e-05 1.0352e-05 -1.10991e-05 0 
28.4639 24.2506 -277.374 -2.47126 4.73123 -24.741 7.6858 -7.38519 1.67146 6.41139 -16.4421 2.91031 5.96046e-06 -50.566 -4.76837e-05 -5.67515 19.5376 -3.62374e-06 -5.96046e-06 -40.224 -2.38419e-05 2.37131 -22.3954 2.06092 -7.31459 -7.19319 1.9901 -1.81813 -20.8557 -4.322 1.19209e-05 -46.8732 0 8.44022 36.1106 -6.34084e-06 -2.38419e-05 -42.9437 2.38419e-05 -19.7843 -45.6059 -20.8848 1.78814e-05 6.02137 -6.02136 1.37635 -4.67637 0.369587 0 34.6158 4.76837e-05 -32.8534 1.10991e-05 -0.219195 19.7559 1.71363e-05 -9.53674e-05 -28.8531 20.3172 6.55933 27.8704 3.57628e-05 2.38419e-05 3.77516e-07 -1.36604e-05 -28.4044 28.7612 -1.19209e-05 -7.15256e-05 -7.20634 0.0426667 -4.73446 0.0062 0.0497 0.0339 0 0 0 0 0.0215 0 0 0 0 0 0.022 0 0 0 0 0 0.017 0 0 0 0 -0.0068 0.0873 0.0207 0 0 0 0 0.0267 0 0 0 0 0 0.0213 0 0 0 0 0 0.018 0 0 0 0 -0.0067 0.0922 0.0055 0 0 0 0 0.0266 0 0 0 0 0 0.0228 0 0 0 0 0 0.015 0 0 0 0 -0.0067 0.0925 -0.0113 0 0 0 0 0.0247 0 0 0 0 0 0.0221 0 0 0 0 0 0.018 0 0 0 0 -0.0066 0.0935 -0.0272 0 0 0 0 0.0163 0 0 0 0 0 0.0171 0 0 0 0 0 0.018 0 0 0 0 0 34.6158 4.76837e-05 30.4192 -1.70755e-06 0.217359 -19.9229 3.57628e-05 -2.38419e-05 45.0422 11.9904 -5.21031 -26.3637 -2.98023e-05 -4.76837e-05 -6.90942e-06 5.97641e-06 54.5038 -26.2018 0 3.57628e-05 3.45451 0.0642659 6.746 -0.0062 0.0497 0.0339 45 0 0 0 0.0215 0 0 -45 0 0 0.022 0 0 -45 0 0 0.017 0 0 0 0 0.0068 0.0873 0.0207 45 0 0 0 0.0267 0 80 0 0 0 0.0213 0 90 0 0 0 0.018 0 0 0 0 0.0067 0.0922 0.0055 45 0 0 0 0.0266 0 80 0 0 0 0.0228 0 90 0 0 0 0.015 0 0 0 0 0.0067 0.0925 -0.0113 45 0 0 0 0.0247 0 80 0 0 0 0.0221 0 90 0 0 0 0.018 0 0 0 0 0.0066 0.0935 -0.0272 45 0 0 0 0.0163 0 80 0 0 0 0.0171 0 90 0 0 0 0.018 0 0 0 0 0 34.6158 4.76837e-05 1.15234 5.19692 -0.104386 -2.38419e-05 21.098 -7.15256e-05 1.0352e-05 -1.10991e-05 0 
28.1046 23.6497 -276.625 -3.12679 4.24962 -24.2922 7.67441 -7.45634 1.65727 6.336 -16.3974 2.5002 0 -49.8586 0 -5.2983 21.3608 5.5005e-06 1.19209e-05 -40.4539 -2.38419e-05 2.95809 -22.4126 2.59229 -7.31087 -7.09135 1.93374 -5.72549 -27.6655 -4.53827 2.38419e-05 -45.9923 0 9.8074 32.3122 6.06123e-06 -3.57628e-05 -42.6523 -2.38419e-05 -22.7612 -40.7116 -23.471 1.78814e-05 6.01704 -6.01704 1.30575 -4.5176 0.409876 5.96046e-06 34.6158 7.15256e-05 -32.8336 1.62217e-05 -0.253913 19.8605 -8.19564e-06 -7.15256e-05 -26.9787 23.2616 3.33344 27.9433 -1.19209e-05 2.38419e-05 2.54956e-06 5.12264e-06 -26.4597 28.8003 1.19209e-05 -2.38419e-05 -7.06558 0.0337785 -4.61771 0.0062 0.0497 0.0339 0 0 0 0 0.0215 0 0 0 0 0 0.022 0 0 0 0 0 0.017 0 0 0 0 -0.0068 0.0873 0.0207 0 0 0 0 0.0267 0 0 0 0 0 0.0213 0 0 0 0 0 0.018 0 0 0 0 -0.0067 0.0922 0.0055 0 0 0 0 0.0266 0 0 0 0 0 0.0228 0 0 0 0 0 0.015 0 0 0 0 -0.0067 0.0925 -0.0113 0 0 0 0 0.0247 0 0 0 0 0 0.0221 0 0 0 0 0 0.018 0 0 0 0 -0.0066 0.0935 -0.0272 0 0 0 0 0.0163 0 0 0 0 0 0.0171 0 0 0 0 0 0.018 0 0 0 0 5.96046e-06 34.6158 7.15256e-05 31.002 -5.12264e-06 0.25428 -19.8313 0 -2.38419e-05 44.196 11.0952 -6.32421 -26.8566 5.96046e-06 -2.38419e-05 2.00015e-05 5.12264e-06 52.583 -25.7551 1.19209e-05 4.76837e-05 3.68374 0.0551593 7.13513 -0.0062 0.0497 0.0339 45 0 0 0 0.0215 0 0 -45 0 0 0.022 0 0 -45 0 0 0.017 0 0 0 0 0.0068 0.0873 0.0207 45 0 0 0 0.0267 0 80 0 0 0 0.0213 0 90 0 0 0 0.018 0 0 0 0 0.0067 0.0922 0.0055 45 0 0 0 0.0266 0 80 0 0 0 0.0228 0 90 0 0 0 0.015 0 0 0 0 0.0067 0.0925 -0.0113 45 0 0 0 0.0247 0 80 0 0 0 0.0221 0 90 0 0 0 0.018 0 0 0 0 0.0066 0.0935 -0.0272 45 0 0 0 0.0163 0 80 0 0 0 0.0171 0 90 0 0 0 0.018 0 0 0 0 5.96046e-06 34.6158 7.15256e-05 0.918936 5.47799 -0.0877332 -1.19209e-05 21.211 -4.76837e-05 1.02453e-05 -9.8184e-06 0 
27.9008 23.2664 -276.139 -3.46074 3.90065 -24.0308 7.68925 -7.50833 1.66864 5.92567 -16.3689 1.95429 -1.19209e-05 -49.5739 -2.38419e-05 -4.64868 22.6112 0 1.19209e-05 -40.4473 -4.76837e-05 3.29332 -22.4255 2.90124 -7.32011 -7.03757 1.89161 -9.49692 -32.1952 -5.29067 0 -45.5457 -7.15256e-05 10.8281 25.9994 3.79962e-06 5.96046e-06 -41.3471 9.53674e-05 -22.0537 -32.4229 -21.2676 1.78814e-05 6.01512 -6.01509 1.23735 -4.37775 0.44817 -1.19209e-05 34.6158 -4.76837e-05 -32.8277 1.62217e-05 -0.293848 19.9226 2.98023e-06 -2.38419e-05 -25.9081 24.9939 1.42342 27.9475 -2.38419e-05 0 -2.96568e-06 1.70755e-06 -26.2581 28.7254 1.19209e-05 -2.38419e-05 -7.01567 0.0286633 -4.49289 0.0062 0.0497 0.0339 0 0 0 0 0.0215 0 0 0 0 0 0.022 0 0 0 0 0 0.017 0 0 0 0 -0.0068 0.0873 0.0207 0 0 0 0 0.0267 0 0 0 0 0 0.0213 0 0 0 0 0 0.018 0 0 0 0 -0.0067 0.0922 0.0055 0 0 0 0 0.0266 0 0 0 0 0 0.0228 0 0 0 0 0 0.015 0 0 0 0 -0.0067 0.0925 -0.0113 0 0 0 0 0.0247 0 0 0 0 0 0.0221 0 0 0 0 0 0.018 0 0 0 0 -0.0066 0.0935 -0.0272 0 0 0 0 0.0163 0 0 0 0 0 0.0171 0 0 0 0 0 0.018 0 0 0 0 -1.19209e-05 34.6158 -4.76837e-05 31.4118 -3.41509e-06 0.295699 -19.7973 1.19209e-05 -7.15256e-05 43.601 11.1465 -6.96567 -27.1249 -1.78814e-05 4.76837e-05 9.65062e-06 3.41509e-06 52.9754 -25.1995 5.96046e-06 -2.38419e-05 3.83051 0.0502024 7.18271 -0.0062 0.0497 0.0339 45 0 0 0 0.0215 0 0 -45 0 0 0.022 0 0 -45 0 0 0.017 0 0 0 0 0.0068 0.0873 0.0207 45 0 0 0 0.0267 0 80 0 0 0 0.0213 0 90 0 0 0 0.018 0 0 0 0 0.0067 0.0922 0.0055 45 0 0 0 0.0266 0 80 0 0 0 0.0228 0 90 0 0 0 0.015 0 0 0 0 0.0067 0.0925 -0.0113 45 0 0 0 0.0247 0 80 0 0 0 0.0221 0 90 0 0 0 0.018 0 0 0 0 0.0066 0.0935 -0.0272 45 0 0 0 0.0163 0 80 0 0 0 0.0171 0 90 0 0 0 0.018 0 0 0 0 -1.19209e-05 34.6158 -4.76837e-05 0.775689 5.8072 -0.0784838 -1.19209e-05 21.1876 0 9.71168e-06 -9.8184e-06 -1.70755e-06 
27.7217 22.8839 -275.442 -3.67172 3.25448 -23.726 7.74496 -7.54569 1.66264 4.93909 -15.9992 1.32867 -1.19209e-05 -49.2956 2.38419e-05 -3.65354 23.7916 -1.86613e-06 -1.19209e-05 -40.4422 -4.76837e-05 3.65771 -22.3996 3.24256 -7.3377 -6.97686 1.84846 -14.9555 -36.9402 -7.06458 0 -44.7155 2.38419e-05 10.0854 14.2262 5.28471e-06 -2.38419e-05 -39.878 -4.76837e-05 -14.1103 -21.1229 -12.9841 -5.96046e-06 6.01398 -6.01401 1.08914 -4.0796 0.368335 1.78814e-05 34.6158 2.38419e-05 -32.8777 1.36604e-05 -0.32328 19.9823 -1.63913e-05 -2.38419e-05 -24.8947 28.0325 -0.981488 27.5929 0 0 -1.91341e-06 0 -26.8226 28.6802 -4.76837e-05 0 -6.94094 0.00345564 -3.53153 0.0062 0.0497 0.0339 0 0 0 0 0.0215 0 0 0 0 0 0.022 0 0 0 0 0 0.017 0 0 0 0 -0.0068 0.0873 0.0207 0 0 0 0 0.0267 0 0 0 0 0 0.0213 0 0 0 0 0 0.018 0 0 0 0 -0.0067 0.0922 0.0055 0 0 0 0 0.0266 0 0 0 0 0 0.0228 0 0 0 0 0 0.015 0 0 0 0 -0.0067 0.0925 -0.0113 0 0 0 0 0.0247 0 0 0 0 0 0.0221 0 0 0 0 0 0.018 0 0 0 0 -0.0066 0.0935 -0.0272 0 0 0 0 0.0163 0 0 0 0 0 0.0171 0 0 0 0 0 0.018 0 0 0 0 1.78814e-05 34.6158 2.38419e-05 31.7685 -7.68396e-06 0.326785 -19.7671 3.57628e-05 0 42.2813 7.82477 -7.50934 -27.3881 -1.19209e-05 4.76837e-05 -4.70185e-06 9.3915e-06 50.577 -24.8099 5.96046e-06 0 6.05764 0.0942293 9.4876 -0.0062 0.0497 0.0339 45 0 0 0 0.0215 0 0 -45 0 0 0.022 0 0 -45 0 0 0.017 0 0 0 0 0.0068 0.0873 0.0207 45 0 0 0 0.0267 0 80 0 0 0 0.0213 0 90 0 0 0 0.018 0 0 0 0 0.0067 0.0922 0.0055 45 0 0 0 0.0266 0 80 0 0 0 0.0228 0 90 0 0 0 0.015 0 0 0 0 0.0067 0.0925 -0.0113 45 0 0 0 0.0247 0 80 0 0 0 0.0221 0 90 0 0 0 0.018 0 0 0 0 0.0066 0.0935 -0.0272 45 0 0 0 0.0163 0 80 0 0 0 0.0171 0 90 0 0 0 0.018 0 0 0 0 1.78814e-05 34.6158 2.38419e-05 0.674245 6.25432 -0.0734571 1.78814e-05 21.1302 2.38419e-05 1.02453e-05 -1.06722e-05 -1.70755e-06 
27.6223 22.7065 -274.85 -3.62056 2.93072 -23.7807 7.83453 -7.5321 1.63434 3.92272 -15.7441 1.07407 1.78814e-05 -49.1303 2.38419e-05 -2.64367 24.2705 -1.8731e-06 -1.78814e-05 -40.5442 -2.38419e-05 3.924 -22.3149 3.49336 -7.38354 -6.97339 1.84464 -21.0975 -41.8568 -12.3427 0 -43.4675 2.38419e-05 9.66964 6.85277 -1.16469 1.19209e-05 -38.0175 2.38419e-05 -5.1627 -10.9262 -5.53643 1.78814e-05 6.01887 -6.01885 1.14443 -3.77515 0.183793 1.19209e-05 34.6158 -2.38419e-05 -33.1369 1.79292e-05 -0.401053 19.9859 -5.21541e-06 0 -24.2449 30.5006 -2.594 27.1389 -2.38419e-05 4.76837e-05 -4.95741e-06 5.12264e-06 -29.3014 29.2087 1.19209e-05 1.19209e-05 -7.06359 -0.0606361 -1.53394 0.0062 0.0497 0.0339 0 0 0 0 0.0215 0 0 0 0 0 0.022 0 0 0 0 0 0.017 0 0 0 0 -0.0068 0.0873 0.0207 0 0 0 0 0.0267 0 0 0 0 0 0.0213 0 0 0 0 0 0.018 0 0 0 0 -0.0067 0.0922 0.0055 0 0 0 0 0.0266 0 0 0 0 0 0.0228 0 0 0 0 0 0.015 0 0 0 0 -0.0067 0.0925 -0.0113 0 0 0 0 0.0247 0 0 0 0 0 0.0221 0 0 0 0 0 0.018 0 0 0 0 -0.0066 0.0935 -0.0272 0 0 0 0 0.0163 0 0 0 0 0 0.0171 0 0 0 0 0 0.018 0 0 0 0 1.19209e-05 34.6158 -2.38419e-05 31.5114 -1.02453e-05 0.405606 -19.7607 1.19209e-05 9.53674e-05 41.5616 5.82426 -7.24752 -27.4503 -1.19209e-05 -2.38419e-05 2.10332e-06 8.53773e-06 47.0722 -24.4402 0 2.38419e-05 9.88205 0.237711 13.747 -0.0062 0.0497 0.0339 45 0 0 0 0.0215 0 0 -45 0 0 0.022 0 0 -45 0 0 0.017 0 0 0 0 0.0068 0.0873 0.0207 45 0 0 0 0.0267 0 80 0 0 0 0.0213 0 90 0 0 0 0.018 0 0 0 0 0.0067 0.0922 0.0055 45 0 0 0 0.0266 0 80 0 0 0 0.0228 0 90 0 0 0 0.015 0 0 0 0 0.0067 0.0925 -0.0113 45 0 0 0 0.0247 0 80 0 0 0 0.0221 0 90 0 0 0 0.018 0 0 0 0 0.0066 0.0935 -0.0272 45 0 0 0 0.0163 0 80 0 0 0 0.0171 0 90 0 0 0 0.018 0 0 0 0 1.19209e-05 34.6158 -2.38419e-05 0.843893 6.00308 -0.0882657 -1.19209e-05 21.1387 2.38419e-05 8.96462e-06 -9.39151e-06 0 
